<mxfile host="app.diagrams.net" modified="2023-11-13T20:23:23.000Z" agent="Mozilla/5.0 (Windows NT 10.0; Win64; x64) AppleWebKit/537.36 (KHTML, like Gecko) Chrome/119.0.0.0 Safari/537.36" version="22.1.0" etag="V7hxcKGoccbmN4ZE7e6v" type="github">
  <diagram name="Page-1" id="g_f29CUVpB4Uh5BI5k-q">
    <mxGraphModel>
      <root>
        <mxCell id="0" />
        <mxCell id="1" parent="0" />
      </root>
    </mxGraphModel>
  </diagram>
</mxfile>
